# xmcd CD database file
#
# Track frame offsets:
#	150
#	16896
#	36717
#	55183
#	75150
#	103912
#	127112
#	145888
#	163463
#	181473
#	196791
#	211116
#	223403
#	244600
#	260346
#	280021
#	281398
#
# Disc length: 3751 seconds
#
# Revision: 1
# Processed by: cddbd v1.5.2PL0 Copyright (c) Steve Scherf et al.
# Submitted via: CDex 1.51
#
DISCID=fe0ea511
DTITLE=Various Artist - Proburn-Anne
DYEAR=1900
DGENRE=Blues
TTITLE0=Tammy Cochran - Angels In Waiting
TTITLE1=Sammy Kershaw - When You Love Someone
TTITLE2=Vince Gill and Patty Lovless - My kind Of Woman/My Kind Of Man
TTITLE3=Vince Gill - No Future In The Past
TTITLE4=Whitney Houston and Teddy Pendergrass - Hold Me
TTITLE5=Whitney Houston and Deborah Cox - Same Script, Different Cast
TTITLE6=Vince Gill - Don't Let Our Love Start Slippin' Away
TTITLE7=Lee Ann Womack - I May Hate Myself In The Morning
TTITLE8=Vince Gill - Tryin' To Get Over You
TTITLE9=Garth Brooks - Much Too Young To Feel This Damn Old
TTITLE10=Martina Mcbride and Dolly Parton - I Still Miss Someone
TTITLE11=Dolly Parton and Porter Wagoner - Just Someone I Used To Know
TTITLE12=Patty Loveless - Lonely Too Long
TTITLE13=Martina McBride - In My Daughter's Eyes
TTITLE14=Tracy Bird - Keeper Of The Stars
TTITLE15=Easy Theme - Easy
TTITLE16=Data - seses
EXTD=
EXTT0=
EXTT1=
EXTT2=
EXTT3=
EXTT4=
EXTT5=
EXTT6=
EXTT7=
EXTT8=
EXTT9=
EXTT10=
EXTT11=
EXTT12=
EXTT13=
EXTT14=
EXTT15=
EXTT16=
PLAYORDER=
